<svg width="140" height="140" viewBox="0 0 140 140" fill="none" xmlns="http://www.w3.org/2000/svg">
<path d="M135.217 28.3048H125.404V18.1574C125.404 15.8231 123.713 13.8698 121.402 13.5125C120.997 13.4411 111.446 12.0595 99.9418 14.1557C87.1275 16.49 76.8856 22.2545 69.9545 30.9488C63.0234 22.2545 52.7815 16.49 39.9672 14.1557C28.4629 12.0595 18.9118 13.4411 18.5069 13.5125C16.1965 13.846 14.5054 15.8231 14.5054 18.1574V28.3048H4.69222C2.09602 28.3048 0 30.4009 0 32.9973V121.465C0 122.989 0.738373 124.419 1.97693 125.3C3.21548 126.181 4.81131 126.396 6.24041 125.895C6.59769 125.776 41.7774 113.771 68.0014 125.729C69.2399 126.3 70.669 126.3 71.9076 125.729C98.0601 113.795 133.311 125.776 133.669 125.895C134.169 126.062 134.693 126.157 135.217 126.157C136.169 126.157 137.122 125.872 137.932 125.3C139.171 124.419 139.909 122.989 139.909 121.465V32.9973C139.909 30.4009 137.813 28.3048 135.217 28.3048ZM9.40826 115.2V37.7137H14.5292V100.241C14.5292 101.599 15.1246 102.909 16.1488 103.79C17.173 104.672 18.5545 105.077 19.9121 104.886C20.1741 104.839 40.5626 102.052 55.4729 112.27C37.109 109.126 18.745 112.771 9.43206 115.2H9.40826ZM65.2623 108.03C58.6884 102.099 50.1614 98.0975 39.9672 96.2395C35.0606 95.3582 30.5113 95.0962 26.8909 95.0962C25.8191 95.0962 24.8187 95.0962 23.9136 95.1438V22.4689C32.9408 22.0639 54.8775 23.0167 65.2861 40.6436V108.007L65.2623 108.03ZM74.6467 40.6436C85.0077 23.0882 106.992 22.0877 116.019 22.4689V95.12C112.065 94.9532 106.301 95.0485 99.9418 96.2157C89.7475 98.0737 81.2206 102.075 74.6467 108.007V40.6436ZM130.525 115.2C121.188 112.747 102.824 109.126 84.4599 112.27C99.3701 102.052 119.759 104.839 120.021 104.886C121.378 105.101 122.736 104.696 123.784 103.79C124.808 102.909 125.404 101.599 125.404 100.241V37.7137H130.525V115.2Z" fill="black"/>
</svg>
