<svg width="140" height="140" viewBox="0 0 140 140" fill="none" xmlns="http://www.w3.org/2000/svg">
<path d="M111.622 16.5487C106.576 19.2984 100.139 23.8921 92.5048 30.2003C79.0159 41.361 64.6536 55.4331 56.0169 63.8764C53.6232 66.2056 51.747 68.0496 50.5501 69.1818C50.2914 69.4406 50.0326 69.7317 49.8062 70.0552C32.2415 70.0552 28.1334 82.5099 24.8339 92.5383C22.1168 100.755 19.7877 107.872 11.895 111.948C9.27482 113.307 8.23968 116.542 9.59827 119.162C10.1158 120.133 10.8922 120.941 11.895 121.459C18.8173 125.082 26.7748 126.991 34.9587 126.991C43.7249 126.991 52.0058 124.823 58.8958 120.747C68.6647 114.957 74.746 105.575 76.137 94.2852C77.0751 93.3147 78.4337 91.8913 80.2451 90.0151C87.9762 82.0247 102.371 67.1115 113.854 53.2334C120.356 45.3401 125.143 38.7407 128.087 33.5971C129.963 30.2974 131.128 27.4829 131.645 25.0567C132.713 20.1719 131.031 17.2604 129.446 15.6753C123.752 9.98176 114.695 14.8989 111.752 16.5164L111.622 16.5487ZM65.4947 91.9883C64.5889 102.664 58.4106 108.519 53.332 111.528C45.5039 116.186 34.9263 117.48 25.1574 115.086C30.5918 109.198 32.9855 101.887 34.9587 95.9026C38.6463 84.742 40.4901 79.0808 54.6583 81.1512L65.4947 91.9883ZM75.2636 79.5984L71.8348 83.1569L61.8394 73.1608L65.3653 69.6994L75.2636 79.5984ZM120.615 24.1833C120.13 25.5096 119.159 27.5477 117.283 30.5238C114.339 35.2469 109.778 41.264 103.794 48.381C98.1009 55.1421 91.1785 62.8412 82.6388 71.8668L72.9993 62.2266C82.6065 52.9746 90.7257 45.5988 97.7451 39.7111C104.635 33.9205 110.458 29.6181 114.986 26.9007C117.574 25.3479 119.386 24.5715 120.55 24.1509L120.615 24.1833Z" fill="black"/>
</svg>
