<svg width="140" height="140" viewBox="0 0 140 140" fill="none" xmlns="http://www.w3.org/2000/svg">
<path d="M124.088 32.0246C122.731 30.6669 120.921 30 119.134 30C117.348 30 115.561 30.6669 114.204 32.0246L53.7052 92.5276L25.933 64.7534C24.623 63.4195 22.8604 62.7049 20.9788 62.7049C19.0971 62.7049 17.3584 63.4195 16.0484 64.7534C14.7384 66.0635 14 67.8262 14 69.6841C14 71.5421 14.7384 73.3048 16.0484 74.6387L48.7748 107.344C51.4901 110.083 55.9203 110.083 58.6594 107.344L124.088 41.91C125.398 40.5999 126.137 38.8372 126.137 36.9793C126.137 35.1213 125.398 33.3347 124.088 32.0246Z" fill="black"/>
</svg>
