<svg width="140" height="140" viewBox="0 0 140 140" fill="none" xmlns="http://www.w3.org/2000/svg">
<path d="M129.45 55.891L119.375 52.318C118.78 50.6268 118.113 48.9832 117.351 47.4111L121.948 37.764C122.805 35.9537 122.615 33.786 121.424 32.1662C117.565 26.902 112.944 22.281 107.704 18.446C106.085 17.255 103.941 17.0405 102.107 17.9219L92.4606 22.4953C90.8647 21.7569 89.2213 21.0661 87.5302 20.4706L83.9575 10.3948C83.2906 8.48919 81.6233 7.13145 79.6225 6.82179C72.5485 5.72607 67.2846 5.72607 60.2106 6.82179C58.2098 7.13145 56.5425 8.51301 55.8756 10.3948L52.3029 20.4706C50.6118 21.0661 48.9683 21.733 47.3725 22.4953L37.726 17.9219C35.9158 17.0643 33.7484 17.255 32.1287 18.446C26.8887 22.3048 22.2679 26.902 18.4093 32.1662C17.2184 33.786 17.0041 35.9537 17.8853 37.764L22.4823 47.4111C21.7439 49.007 21.0532 50.6506 20.4577 52.318L10.3826 55.9149C8.4771 56.5818 7.09564 58.2492 6.80982 60.2501C6.26199 63.8708 6 66.9436 6 69.9449C6 72.9462 6.26199 76.0429 6.80982 79.6397C7.11945 81.6406 8.50092 83.3078 10.3826 83.9748L20.4577 87.5478C21.0532 89.239 21.7439 90.8826 22.4823 92.4786L17.8853 102.126C17.0279 103.936 17.2184 106.104 18.4093 107.723C22.2679 112.988 26.8887 117.585 32.1287 121.444C33.7484 122.635 35.9158 122.849 37.726 121.968L47.3725 117.394C48.9683 118.133 50.6118 118.824 52.3029 119.419L55.8756 129.495C56.5425 131.401 58.2098 132.758 60.2106 133.068C63.7595 133.616 66.9273 133.878 69.9284 133.878C72.9296 133.878 76.0974 133.616 79.6463 133.068C81.647 132.758 83.3143 131.377 83.9812 129.495L87.554 119.419C89.2451 118.824 90.8886 118.157 92.4844 117.394L102.131 121.968C103.965 122.849 106.108 122.635 107.728 121.444C112.992 117.585 117.613 112.964 121.448 107.723C122.638 106.104 122.853 103.936 121.972 102.126L117.375 92.4786C118.113 90.8826 118.804 89.239 119.399 87.5478L129.474 83.9748C131.38 83.3078 132.761 81.6406 133.047 79.6397C133.595 76.019 133.857 72.9462 133.857 69.9449C133.857 66.9436 133.595 63.847 133.047 60.2501C132.737 58.2492 131.356 56.5818 129.474 55.9149L129.45 55.891ZM122.615 74.7803L113.159 78.139C111.515 78.7345 110.229 80.0683 109.729 81.7596C108.895 84.618 107.776 87.3096 106.418 89.7869C105.585 91.3352 105.537 93.1694 106.275 94.7654L110.563 103.793C108.49 106.27 106.204 108.581 103.703 110.653L94.6757 106.366C93.0799 105.603 91.2458 105.675 89.6976 106.509C87.2205 107.866 84.5053 108.962 81.6471 109.82C79.956 110.32 78.6221 111.582 78.0267 113.25L74.6683 122.706C71.2384 123.064 68.4279 123.064 64.998 122.706L61.6396 113.25C61.0442 111.606 59.7104 110.32 58.0193 109.82C55.1611 108.962 52.4458 107.866 49.9687 106.509C48.4205 105.675 46.5865 105.603 44.9906 106.366L35.9635 110.653C33.4626 108.581 31.176 106.294 29.1038 103.793L33.3911 94.7654C34.1533 93.1694 34.0818 91.3352 33.2482 89.7869C31.8905 87.3096 30.7949 84.618 29.9374 81.7596C29.4373 80.0683 28.1749 78.7345 26.5076 78.1628L17.0517 74.8041C16.885 73.0891 16.7897 71.4932 16.7897 69.9687C16.7897 68.4443 16.885 66.8483 17.0517 65.1332L26.5076 61.7746C28.1511 61.1791 29.4373 59.8452 29.9374 58.1778C30.7949 55.3194 31.8905 52.6277 33.2482 50.1266C34.0818 48.5783 34.1295 46.7441 33.3911 45.1482L29.1038 36.1204C31.176 33.6193 33.4626 31.3326 35.9635 29.2602L44.9906 33.5478C46.5626 34.3101 48.4205 34.2386 49.9687 33.4049C52.4458 32.0472 55.1372 30.9514 57.9954 30.0939C59.6865 29.5937 61.0204 28.3312 61.6159 26.6638L64.9743 17.2073C68.3803 16.85 71.1908 16.85 74.6445 17.2073L78.0029 26.6638C78.5984 28.3074 79.9322 29.5937 81.6233 30.0939C84.4815 30.9514 87.1968 32.0472 89.6739 33.4049C91.2221 34.2386 93.0561 34.3101 94.6519 33.5478L103.679 29.2602C106.156 31.3326 108.466 33.6193 110.539 36.1204L106.251 45.1482C105.489 46.7203 105.561 48.5783 106.394 50.1266C107.752 52.6039 108.848 55.3194 109.705 58.154C110.205 59.8452 111.468 61.1791 113.135 61.7746L122.591 65.1332C122.757 66.8483 122.853 68.4443 122.853 69.9687C122.853 71.4932 122.757 73.0891 122.591 74.8041L122.615 74.7803Z" fill="black"/>
<path d="M69.8808 43.2666C55.8994 43.2666 44.5142 54.6526 44.5142 68.635C44.5142 82.6174 55.8994 94.0033 69.8808 94.0033C83.8621 94.0033 95.2473 82.6174 95.2473 68.635C95.2473 54.6526 83.8621 43.2666 69.8808 43.2666ZM69.8808 83.0461C61.9254 83.0461 55.4706 76.5909 55.4706 68.635C55.4706 60.6791 61.9254 54.2238 69.8808 54.2238C77.8361 54.2238 84.2908 60.6791 84.2908 68.635C84.2908 76.5909 77.8361 83.0461 69.8808 83.0461Z" fill="black"/>
</svg>
