<svg width="140" height="140" viewBox="0 0 140 140" fill="none" xmlns="http://www.w3.org/2000/svg">
<path d="M69.9043 7C35.1533 7 7 35.179 7 69.9087C7 104.638 35.1771 132.817 69.9043 132.817C104.631 132.817 132.809 104.638 132.809 69.9087C132.809 35.179 104.631 7 69.9043 7ZM117.255 94.9197C111.491 105.853 102.13 114.452 90.7453 119.264C77.6452 124.79 62.9017 124.885 49.7301 119.55C36.5586 114.19 26.0547 103.852 20.5288 90.7512C15.003 77.6502 14.9077 62.9056 20.243 49.7331C25.6021 36.5606 35.9393 26.056 49.0394 20.5298C55.6371 17.7428 62.7349 16.3136 69.8804 16.3136C82.2421 16.3136 94.2228 20.6012 103.774 28.438C113.349 36.2748 119.899 47.1605 122.352 59.2849C124.806 71.4093 122.995 83.9863 117.231 94.9197H117.255Z" fill="black"/>
<path d="M100.201 39.7528C98.772 38.2998 96.9618 37.2993 94.9849 36.8705C93.0079 36.4418 90.9357 36.6085 89.0541 37.3231L58.1617 49.2331C56.1371 50.0192 54.3031 51.2102 52.7549 52.7585C51.2306 54.3068 50.0158 56.1409 49.2298 58.1656L37.3206 89.0602C36.7252 90.6324 36.5108 92.3236 36.7014 93.991C36.8919 95.6584 37.4874 97.2543 38.4401 98.6597C39.3928 100.041 40.6552 101.185 42.132 101.995C43.6087 102.781 45.276 103.209 46.9433 103.233C48.3009 103.233 49.6585 102.971 50.9209 102.447L81.3846 89.9893C83.2901 89.2032 85.0288 88.036 86.4817 86.5829C87.9346 85.1299 89.1017 83.3911 89.8877 81.4855L102.345 51.0196C103.107 49.1378 103.321 47.0893 102.916 45.0885C102.511 43.0876 101.559 41.2535 100.153 39.8243L100.201 39.7528ZM93.7463 47.4228L81.2893 77.8886C80.9797 78.6509 80.5033 79.3417 79.9317 79.9372C79.3362 80.5327 78.6455 80.9852 77.8833 81.2949L47.4196 93.7528C47.2291 93.8242 47.0147 93.848 46.8242 93.8004C46.6336 93.7528 46.4431 93.6575 46.3002 93.5146C46.1573 93.3717 46.062 93.1811 46.0143 92.9905C45.9667 92.8 45.9905 92.5856 46.062 92.395L57.9711 61.5004C58.2808 60.6906 58.7572 59.9521 59.3764 59.3328C59.9957 58.7135 60.7341 58.2371 61.5439 57.9274L92.4363 46.0174C92.6268 45.9221 92.8412 45.9222 93.0318 45.9698C93.2223 46.0174 93.4128 46.1127 93.5558 46.2556C93.6987 46.3985 93.7939 46.5891 93.8416 46.7797C93.8892 46.9702 93.8416 47.1846 93.7701 47.3752L93.7463 47.4228Z" fill="black"/>
<path d="M69.8806 61.4048C65.1884 61.4048 61.3774 65.2159 61.3774 69.9085C61.3774 74.601 65.1884 78.4123 69.8806 78.4123C74.5728 78.4123 78.3837 74.601 78.3837 69.9085C78.3837 65.2159 74.5728 61.4048 69.8806 61.4048Z" fill="black"/>
</svg>
