<svg width="140" height="140" viewBox="0 0 140 140" fill="none" xmlns="http://www.w3.org/2000/svg">
<path d="M70.2143 6C34.7488 6 6 34.7508 6 70.2188C6 105.687 34.7488 134.438 70.2143 134.438C105.68 134.438 134.429 105.687 134.429 70.2188C134.429 34.7508 105.68 6 70.2143 6ZM103.512 45.7318L88.7926 81.7239C87.4826 84.9157 84.9578 87.4645 81.7423 88.7746L45.7528 103.495C40.2746 105.734 34.7487 100.351 36.8924 94.8011L50.969 58.3088C52.2791 54.9263 54.9467 52.2347 58.3527 50.9246L94.8424 36.8469C100.368 34.7031 105.775 40.2294 103.536 45.708L103.512 45.7318Z" fill="black"/>
<path d="M70.2143 60.3335C64.7599 60.3335 60.3535 64.764 60.3535 70.195C60.3535 75.6259 64.7837 80.0565 70.2143 80.0565C75.6449 80.0565 80.0751 75.6259 80.0751 70.195C80.0751 64.764 75.6449 60.3335 70.2143 60.3335Z" fill="black"/>
</svg>
