<svg width="140" height="140" viewBox="0 0 140 140" fill="none" xmlns="http://www.w3.org/2000/svg">
<path d="M117.966 124.81C119.777 124.81 121.515 124.095 122.801 122.809C125.469 120.141 125.469 115.806 122.801 113.138L82.3579 72.6917C81.0955 71.4292 81.0955 69.3807 82.3579 68.1183L122.801 27.6718C125.469 25.004 125.469 20.6687 122.801 18.0009C120.134 15.333 115.799 15.333 113.131 18.0009L72.6877 58.4473C71.4253 59.7097 69.3769 59.7097 68.1146 58.4473L27.671 18.0009C25.0033 15.333 20.6684 15.333 18.0007 18.0009C15.3331 20.6687 15.3331 25.004 18.0007 27.6718L58.4443 68.1183C59.7067 69.3807 59.7067 71.4292 58.4443 72.6917L18.0007 113.138C15.3331 115.806 15.3331 120.141 18.0007 122.809C20.6684 125.477 25.0033 125.477 27.671 122.809L68.1146 82.3626C69.3769 81.1002 71.4253 81.1002 72.6877 82.3626L113.131 122.809C114.417 124.095 116.156 124.81 117.966 124.81Z" fill="black"/>
</svg>
