<svg width="140" height="140" viewBox="0 0 140 140" fill="none" xmlns="http://www.w3.org/2000/svg">
<path d="M16.1682 40.8188H24.9095C26.5768 47.8933 33.2221 53.3004 41.1298 53.3004C49.0375 53.3004 55.2779 47.8933 57.3501 40.8188H124.351C126.852 40.8188 128.519 39.1513 128.519 36.6502C128.519 34.1491 126.852 32.4817 124.351 32.4817H57.3501C55.6828 25.4071 49.0375 20 41.1298 20C33.2221 20 26.9817 25.4071 24.9095 32.4817H16.1682C13.6673 32.4817 12 34.1491 12 36.6502C12 39.1513 13.6673 40.8188 16.1682 40.8188ZM41.1298 28.337C45.7029 28.337 49.4424 32.0767 49.4424 36.6502C49.4424 41.2236 45.7029 44.9634 41.1298 44.9634C36.5567 44.9634 32.8172 41.2236 32.8172 36.6502C32.8172 32.0767 36.5567 28.337 41.1298 28.337Z" fill="black"/>
<path d="M16.4812 74.119H83.4822C85.1495 81.1935 91.7948 86.6007 99.7025 86.6007C107.61 86.6007 113.851 81.1935 115.923 74.119H124.664C127.165 74.119 128.832 72.4516 128.832 69.9505C128.832 67.4494 127.165 65.782 124.664 65.782H115.923C114.256 58.7074 107.61 53.3003 99.7025 53.3003C91.7948 53.3003 85.5544 58.7074 83.4822 65.782H16.4812C13.9803 65.782 12.313 67.4494 12.313 69.9505C12.313 72.4516 13.9803 74.119 16.4812 74.119ZM99.7025 61.6373C104.276 61.6373 108.015 65.377 108.015 69.9505C108.015 74.5239 104.276 78.2636 99.7025 78.2636C95.1294 78.2636 91.3899 74.5239 91.3899 69.9505C91.3899 65.377 95.1294 61.6373 99.7025 61.6373Z" fill="black"/>
<path d="M16.4812 107.396H25.2225C26.8898 114.471 33.5351 119.878 41.4428 119.878C49.3505 119.878 55.5909 114.471 57.6631 107.396H124.664C127.165 107.396 128.832 105.729 128.832 103.227C128.832 100.726 127.165 99.059 124.664 99.059H57.6631C55.9958 91.9844 49.3505 86.5771 41.4428 86.5771C33.5351 86.5771 27.2947 91.9844 25.2225 99.059H16.4812C13.9803 99.059 12.313 100.726 12.313 103.227C12.313 105.729 13.9803 107.396 16.4812 107.396ZM41.4428 94.9142C46.0159 94.9142 49.7554 98.654 49.7554 103.227C49.7554 107.801 46.0159 111.541 41.4428 111.541C36.8697 111.541 33.1302 107.801 33.1302 103.227C33.1302 98.654 36.8697 94.9142 41.4428 94.9142Z" fill="black"/>
</svg>
