<svg width="140" height="140" viewBox="0 0 140 140" fill="none" xmlns="http://www.w3.org/2000/svg">
<path d="M14.2979 40.8188H23.363C25.092 47.8933 32.0082 53.3004 40.2087 53.3004C48.4093 53.3004 54.8808 47.8933 57.0298 40.8188H126.512C129.106 40.8188 130.81 39.1513 130.81 36.6502C130.81 34.1491 129.106 32.5055 126.512 32.5055H57.0298C55.3007 25.431 48.3846 20 40.2087 20C32.0329 20 25.5366 25.431 23.363 32.5055H14.2979C11.7043 32.5055 10 34.1491 10 36.6502C10 39.1513 11.7043 40.8188 14.2979 40.8188Z" fill="black"/>
<path d="M14.2979 74.119H83.7804C85.5095 81.1935 92.4256 86.6007 100.601 86.6007C108.777 86.6007 115.274 81.1935 117.447 74.119H126.512C129.106 74.119 130.81 72.4516 130.81 69.9505C130.81 67.4494 129.106 65.782 126.512 65.782H117.447C115.718 58.7074 108.802 53.3003 100.601 53.3003C92.4009 53.3003 85.9294 58.7074 83.7804 65.782H14.2979C11.7043 65.782 10 67.4494 10 69.9505C10 72.4516 11.7043 74.119 14.2979 74.119Z" fill="black"/>
<path d="M14.2979 107.396H23.363C25.092 114.47 32.0082 119.877 40.2087 119.877C48.4093 119.877 54.8808 114.47 57.0298 107.396H126.512C129.106 107.396 130.81 105.728 130.81 103.251C130.81 100.773 129.106 99.0823 126.512 99.0823H57.0298C55.3007 92.0077 48.3846 86.6006 40.2087 86.6006C32.0329 86.6006 25.5366 92.0077 23.363 99.0823H14.2979C11.7043 99.0823 10 100.75 10 103.251C10 105.752 11.7043 107.396 14.2979 107.396Z" fill="black"/>
</svg>
