<svg width="140" height="140" viewBox="0 0 140 140" fill="none" xmlns="http://www.w3.org/2000/svg">
<path d="M25.2188 85.3132C32.269 94.198 41.5106 101.725 50.3472 107.871C53.7294 110.205 57.1354 112.373 60.2556 113.969C63.1853 115.469 66.5675 116.827 69.64 116.827C72.7126 116.827 76.0948 115.446 79.0245 113.969C82.1447 112.373 85.5745 110.229 88.9329 107.871C97.7695 101.749 107.011 94.198 114.061 85.3132C121.135 76.4045 126.232 65.8998 126.232 53.9184C126.232 36.4345 110.893 23 92.9106 23C83.6452 23 75.4755 27.359 69.6162 32.9805C63.7569 27.359 55.5872 23 46.3219 23C28.339 23 13 36.4583 13 53.9184C13 65.876 18.0971 76.4045 25.1712 85.3132H25.2188ZM46.3695 32.6947C54.0867 32.6947 61.3036 37.3158 65.8053 43.1756C66.7342 44.3666 68.1395 45.0812 69.6639 45.0812C71.1882 45.0812 72.5935 44.3904 73.5224 43.1756C78.0241 37.3158 85.2411 32.6947 92.9582 32.6947C106.416 32.6947 116.562 42.58 116.562 53.9184C116.562 62.9938 112.704 71.45 106.487 79.2629C100.27 87.0997 91.8864 94.0075 83.4309 99.8672C80.2392 102.083 77.2143 103.964 74.6419 105.298C71.879 106.704 70.2593 107.109 69.6639 107.109C69.0684 107.109 67.4487 106.704 64.6858 105.298C62.1134 103.988 59.0885 102.106 55.8969 99.8672C47.4413 94.0075 39.0573 87.0997 32.8407 79.2629C26.6241 71.45 22.7655 62.9938 22.7655 53.9184C22.7655 42.58 32.936 32.6947 46.3695 32.6947Z" fill="black"/>
</svg>
