<svg width="140" height="140" viewBox="0 0 140 140" fill="none" xmlns="http://www.w3.org/2000/svg">
<path d="M25.1712 85.3132C32.2214 94.198 41.4629 101.725 50.2995 107.871C53.6817 110.205 57.1116 112.349 60.2318 113.945C63.1614 115.446 66.5436 116.803 69.6162 116.803C72.6888 116.803 76.0472 115.446 79.0006 113.945C82.1208 112.349 85.5269 110.205 88.9091 107.871C97.7457 101.725 106.987 94.198 114.037 85.3132C121.111 76.4283 126.232 65.8998 126.232 53.9184C126.232 36.4583 110.893 23 92.9106 23C83.6214 23 75.4755 27.3352 69.6162 32.9805C63.7569 27.3352 55.5872 23 46.3219 23C28.3152 23 13 36.4583 13 53.9184C13 65.8998 18.0971 76.4283 25.1712 85.3132Z" fill="black"/>
</svg>
