<svg width="140" height="140" viewBox="0 0 140 140" fill="none" xmlns="http://www.w3.org/2000/svg">
<path d="M9.16099 66.6793C10.9712 68.8469 14.1867 69.1566 16.3541 67.3463L17.95 66.0362V113.748C17.95 122.204 24.8096 129.064 33.2652 129.064H47.2227V84.3062C47.2227 81.4716 49.5093 79.1848 52.3437 79.1848H88.1903C91.0008 79.1848 93.2874 81.4716 93.2874 84.3062V129.064H107.269C115.724 129.064 122.56 122.204 122.584 113.748V66.0362L124.156 67.3463C126.323 69.1566 129.563 68.8469 131.349 66.6793C133.159 64.4879 132.85 61.2722 130.682 59.4857L73.5182 12.1791C71.6365 10.607 68.8974 10.607 66.9919 12.1791L9.85173 59.4857C7.68426 61.2722 7.37462 64.4879 9.16099 66.6793Z" fill="black"/>
<path d="M83.0695 89.4036H57.4409V129.064H83.0695V89.4036Z" fill="black"/>
</svg>
