<svg width="140" height="140" viewBox="0 0 140 140" fill="none" xmlns="http://www.w3.org/2000/svg">
<path d="M9.18058 66.6793C10.9908 68.847 14.2062 69.1566 16.3737 67.3463L17.9457 66.0362V113.724C17.9457 122.18 24.8054 129.04 33.2609 129.04H107.265C115.72 129.04 122.58 122.18 122.58 113.724V66.0362L124.152 67.3463C126.319 69.1566 129.535 68.847 131.345 66.6793C133.155 64.5117 132.845 61.296 130.678 59.4857L73.5139 12.1791C71.6323 10.607 68.8932 10.607 67.0115 12.1791L9.8475 59.4857C7.68003 61.296 7.37039 64.5117 9.18058 66.6793ZM83.0889 118.845H57.4604V89.4037H83.0889V118.845ZM28.1876 57.5801L70.2985 22.7314L112.409 57.5801V113.724C112.409 116.535 110.123 118.821 107.312 118.821H93.3546V84.2585C93.3546 81.4478 91.0681 79.161 88.2575 79.161H52.4109C49.6003 79.161 47.3138 81.4478 47.3138 84.2585V118.821H33.3562C30.5456 118.821 28.2591 116.535 28.2591 113.724V57.5801H28.1876Z" fill="black"/>
</svg>
