<svg width="140" height="140" viewBox="0 0 140 140" fill="none" xmlns="http://www.w3.org/2000/svg">
<path d="M130.903 66.6754L114.778 58.6479L79.3125 76.3225C76.4543 77.7517 73.215 78.5139 69.9995 78.5139C66.784 78.5139 63.5447 77.7517 60.6865 76.3225L25.221 58.6479L9.09599 66.6754C7.83361 67.2948 7.04761 68.5809 7.04761 69.9863C7.04761 71.3917 7.83361 72.6542 9.09599 73.2973L63.9973 100.643C65.8789 101.595 67.9511 102.048 70.0233 102.048C72.0955 102.048 74.1677 101.572 76.0494 100.643L130.951 73.2973C132.213 72.678 132.999 71.3917 132.999 69.9863C132.999 68.5809 132.213 67.3186 130.951 66.6754H130.903Z" fill="black"/>
<path d="M130.903 97.5937L114.778 89.5664L79.3125 107.241C76.4543 108.67 73.215 109.432 69.9995 109.432C66.784 109.432 63.5447 108.67 60.6865 107.241L25.221 89.5664L9.09599 97.5937C7.83361 98.2131 7.04761 99.4994 7.04761 100.905C7.04761 102.31 7.83361 103.573 9.09599 104.216L63.9973 131.561C65.8789 132.49 67.9511 132.966 70.0233 132.966C72.0955 132.966 74.1677 132.49 76.0494 131.561L130.951 104.216C132.213 103.596 132.999 102.31 132.999 100.905C132.999 99.4994 132.213 98.2369 130.951 97.5937H130.903Z" fill="black"/>
<path d="M130.903 35.7567L76.0018 8.41134C72.2146 6.52955 67.713 6.52955 63.9497 8.41134L9.04838 35.7567C7.78601 36.376 7 37.6623 7 39.0677C7 40.4731 7.78601 41.7356 9.04838 42.3787L63.9497 69.7241C65.8313 70.6531 67.9035 71.1295 69.9757 71.1295C72.0479 71.1295 74.1201 70.6531 76.0018 69.7241L130.903 42.3787C132.165 41.7594 132.951 40.4731 132.951 39.0677C132.951 37.6623 132.165 36.376 130.903 35.7567Z" fill="black"/>
</svg>
