<svg width="140" height="140" viewBox="0 0 140 140" fill="none" xmlns="http://www.w3.org/2000/svg">
<path d="M134.119 39.1278C134.119 37.3174 133.095 35.6739 131.475 34.864L76.5738 7.51853C72.5008 5.49382 67.6419 5.49382 63.5451 7.51853L8.64384 34.864C7.02419 35.6739 6 37.3174 6 39.1278C6 40.9381 7.02419 42.5816 8.64384 43.3915L31.1284 54.587L8.64384 65.7824C7.02419 66.5923 6 68.2358 6 70.0461C6 71.8565 7.02419 73.5001 8.64384 74.31L31.1284 85.5053L8.64384 96.7008C7.02419 97.5107 6 99.1543 6 100.965C6 102.775 7.02419 104.419 8.64384 105.228L63.5451 132.574C65.5935 133.598 67.8086 134.098 70.0476 134.098C72.2865 134.098 74.5254 133.598 76.5499 132.574L131.451 105.228C133.071 104.419 134.095 102.775 134.095 100.965C134.095 99.1543 133.071 97.5107 131.451 96.7008L108.967 85.5053L131.451 74.31C133.071 73.5001 134.095 71.8565 134.095 70.0461C134.095 68.2358 133.071 66.5923 131.451 65.7824L108.967 54.587L131.451 43.3915C133.071 42.5816 134.095 40.9381 134.095 39.1278H134.119ZM98.2961 90.8173L118.661 100.965L72.3341 124.046C70.9288 124.737 69.2139 124.737 67.8086 124.046L21.4819 100.965L41.8466 90.8173L63.569 101.632C65.6173 102.656 67.8324 103.156 70.0714 103.156C70.6192 103.156 71.1908 103.132 71.7387 103.061C73.4059 102.87 75.0494 102.394 76.5738 101.632L98.2961 90.8173ZM93.5801 82.5278L72.3341 93.1039C71.6196 93.4612 70.8574 93.628 70.0714 93.628C69.2854 93.628 68.5232 93.4612 67.8086 93.1039L21.4819 70.0223L41.8466 59.8988L63.569 70.7132C67.6419 72.7379 72.5247 72.7379 76.5976 70.7132L98.3199 59.8988L118.685 70.0223L93.6039 82.5041L93.5801 82.5278ZM72.3341 62.1856C70.9288 62.9002 69.2377 62.9002 67.8086 62.1856L21.4819 39.1039L67.8086 16.0223C69.2377 15.3315 70.9288 15.3315 72.3341 16.0223L118.661 39.1039L72.3341 62.1856Z" fill="black"/>
</svg>
