<svg width="140" height="140" viewBox="0 0 140 140" fill="none" xmlns="http://www.w3.org/2000/svg">
<path d="M56.8503 12C31.5552 12 11 32.5805 11 57.8536C11 83.1266 31.5791 103.707 56.8503 103.707C67.0922 103.707 77.0245 100.301 85.0751 93.9648L118.587 127.48C120.898 129.6 124.471 129.457 126.614 127.146C128.615 124.978 128.615 121.62 126.614 119.452L93.078 85.9136C99.3423 77.8863 102.701 68.0009 102.701 57.8536C102.701 32.5567 82.1216 12 56.8503 12ZM56.8265 92.3688C37.8195 92.3688 22.3375 76.8858 22.3375 57.8774C22.3375 38.869 37.8195 23.386 56.8265 23.386C75.8335 23.386 91.3155 38.869 91.3155 57.8774C91.3155 76.8858 75.8335 92.3688 56.8265 92.3688Z" fill="black"/>
</svg>
