<svg width="140" height="140" viewBox="0 0 140 140" fill="none" xmlns="http://www.w3.org/2000/svg">
<path d="M57.7511 1.26202C55.7504 1.88134 54.4165 3.71549 54.4165 5.81166V35.9916C54.4165 38.6119 56.5602 40.7557 59.1802 40.7557C61.8002 40.7557 63.9438 38.6119 63.9438 35.9916V21.1041L75.6625 38.064C77.0201 40.041 79.3067 40.8747 81.4741 40.184C83.6893 39.4932 85.1184 37.4447 85.1184 34.9198L84.8325 5.71636C84.8087 3.09615 82.6889 1 80.0689 1H80.0212C77.4012 1.02382 75.2814 3.19145 75.3052 5.81166L75.4481 21.0089L63.0864 3.11998C61.8955 1.40494 59.728 0.666508 57.7511 1.28583V1.26202Z" fill="black"/>
<path d="M28.5974 137.132C29.5025 137.918 30.622 138.323 31.7652 138.323C32.6465 138.323 33.5516 138.084 34.3376 137.584L69.684 114.884L105.054 137.584C106.841 138.727 109.175 138.537 110.771 137.132C112.367 135.726 112.843 133.416 111.914 131.51L73.9952 52.8562C73.1853 51.2126 71.5181 50.1646 69.684 50.1646C67.85 50.1646 66.2066 51.2126 65.3967 52.8562L27.4779 131.51C26.549 133.416 27.0016 135.726 28.5974 137.132Z" fill="black"/>
</svg>
