<svg width="140" height="140" viewBox="0 0 140 140" fill="none" xmlns="http://www.w3.org/2000/svg">
<path d="M57.6969 1.26202C55.6962 1.88134 54.3623 3.71549 54.3623 5.81166V35.9916C54.3623 38.6119 56.506 40.7557 59.126 40.7557C61.746 40.7557 63.8896 38.6119 63.8896 35.9916V21.1041L75.6083 38.064C76.9659 40.041 79.2525 40.8747 81.42 40.184C83.6351 39.4932 85.0642 37.4447 85.0642 34.9198L84.7784 5.71636C84.7546 3.09615 82.6347 1 80.0147 1H79.967C77.347 1.02382 75.2272 3.16763 75.251 5.81166L75.3939 21.0089L63.0322 3.11998C61.8413 1.40494 59.6739 0.666508 57.6969 1.28583V1.26202Z" fill="black"/>
<path d="M28.5671 137.132C29.4721 137.918 30.5916 138.323 31.7349 138.323C32.6162 138.323 33.5213 138.084 34.3073 137.56L69.6537 114.86L105 137.56C106.786 138.704 109.145 138.537 110.74 137.108C112.336 135.702 112.789 133.392 111.884 131.462L73.9648 52.8086C73.1788 51.165 71.5116 50.1169 69.6775 50.1169C67.8435 50.1169 66.1762 51.165 65.3902 52.8086L27.4714 131.462C26.5425 133.392 27.0189 135.679 28.6147 137.108L28.5671 137.132ZM69.6537 65.8858L95.973 120.458L72.2261 105.213C70.654 104.212 68.6533 104.212 67.0813 105.213L43.3345 120.458L69.6537 65.8858Z" fill="black"/>
</svg>
