<svg width="140" height="140" viewBox="0 0 140 140" fill="none" xmlns="http://www.w3.org/2000/svg">
<path d="M73.47 130.53C75.1611 128.648 114.985 83.9378 114.985 53.4958C114.985 28.9612 95.0256 9 70.4927 9C45.9598 9 26 28.9612 26 53.4958C26 83.9378 65.8243 128.648 67.5154 130.53C69.1112 132.293 71.898 132.293 73.47 130.53ZM48.1034 53.4958C48.1034 41.1571 58.1548 31.105 70.4927 31.105C82.8306 31.105 92.8819 41.1571 92.8819 53.4958C92.8819 65.8346 82.8306 75.8867 70.4927 75.8867C58.1548 75.8867 48.1034 65.8346 48.1034 53.4958Z" fill="black"/>
</svg>
