<svg width="140" height="140" viewBox="0 0 140 140" fill="none" xmlns="http://www.w3.org/2000/svg">
<path d="M70.374 132.626C71.7554 132.626 73.0893 132.031 74.0182 131.007C75.7331 129.101 115.748 84.1527 115.748 53.3772C115.748 28.3423 95.3832 8 70.374 8C45.3647 8 25 28.3661 25 53.3772C25 84.1527 65.0387 129.101 66.7298 131.007C67.6587 132.031 68.9925 132.626 70.374 132.626ZM70.374 17.79C90.0003 17.79 105.959 33.7495 105.959 53.3772C105.959 75.5775 79.5917 109.164 70.374 120.192C61.1563 109.14 34.7893 75.5775 34.7893 53.3772C34.7893 33.7495 50.7476 17.79 70.374 17.79Z" fill="black"/>
<path d="M70.374 76.6733C83.2121 76.6733 93.6445 66.2401 93.6445 53.4011C93.6445 40.5621 83.2121 30.1289 70.374 30.1289C57.5359 30.1289 47.1035 40.5621 47.1035 53.4011C47.1035 66.2401 57.5359 76.6733 70.374 76.6733ZM70.374 39.8951C77.8053 39.8951 83.8552 45.9454 83.8552 53.3773C83.8552 60.8091 77.8053 66.8594 70.374 66.8594C62.9427 66.8594 56.8928 60.8091 56.8928 53.3773C56.8928 45.9454 62.9427 39.8951 70.374 39.8951Z" fill="black"/>
</svg>
