<svg width="140" height="140" viewBox="0 0 140 140" fill="none" xmlns="http://www.w3.org/2000/svg">
<path d="M131.131 10.3993C128.844 7.2074 124.557 6.13547 119.793 7.73141L14.8975 42.6992C10.8722 44.0331 8.08539 46.8201 7.25175 50.3217C6.41811 53.8232 7.6805 57.5629 10.6578 60.5642C11.0151 60.9215 11.42 61.2074 11.8487 61.4456L55.6745 84.027L78.2543 127.856C78.4925 128.308 78.7783 128.713 79.1355 129.047C81.5412 131.453 84.3279 132.715 87.2099 132.715C91.6163 132.715 95.3797 129.69 96.9993 124.831L131.965 19.9273C133.179 16.259 132.87 12.8766 131.083 10.3993H131.131ZM112.719 20.2132L58.3659 74.5704L17.0649 53.2753C16.7791 52.918 16.66 52.6322 16.6362 52.5131C16.7553 52.3702 17.1126 52.0605 17.9462 51.7985L112.719 20.2132ZM119.508 27.0018L87.9245 121.782C87.6387 122.639 87.2814 123.044 87.2576 123.092C87.1862 123.092 86.8765 122.997 86.4478 122.663L65.1542 81.3592L119.508 27.0018Z" fill="black"/>
</svg>
