<svg width="140" height="140" viewBox="0 0 140 140" fill="none" xmlns="http://www.w3.org/2000/svg">
<path d="M37.2153 86.2943L31.1178 121.905C30.8081 123.644 31.5227 125.383 32.9518 126.431C33.7616 127.027 34.7144 127.312 35.6671 127.312C36.4055 127.312 37.1438 127.146 37.8346 126.765L69.8226 109.948L101.811 126.765C103.335 127.574 105.288 127.431 106.693 126.407C108.123 125.359 108.837 123.62 108.527 121.881L102.43 86.2704L128.297 61.045C129.559 59.8064 130.012 57.9961 129.464 56.3048C128.916 54.6136 127.487 53.3988 125.724 53.1606L89.9729 47.9678L73.9908 15.5726C73.2048 13.9766 71.609 13 69.8464 13C68.0839 13 66.488 14.0004 65.702 15.5726L49.7199 47.9678L13.9686 53.1606C12.206 53.4226 10.7769 54.6136 10.2291 56.3048C9.68125 57.9961 10.1338 59.8064 11.3962 61.045L37.2629 86.2704L37.2153 86.2943ZM94.1888 81.3635C93.0931 82.4354 92.5929 83.9599 92.8549 85.4606L97.7853 114.235L71.9424 100.658C70.5847 99.9431 68.9889 99.9431 67.6313 100.658L41.7884 114.235L46.7188 85.4606C46.9808 83.9599 46.4806 82.4354 45.3849 81.3635L24.4724 60.9974L53.3641 56.8051C54.8647 56.5907 56.1746 55.6379 56.8416 54.2801L69.7511 28.1019L82.6606 54.2801C83.3276 55.6379 84.6376 56.5907 86.1382 56.8051L115.03 60.9974L94.1173 81.3635H94.1888Z" fill="black"/>
</svg>
