<svg width="140" height="140" viewBox="0 0 140 140" fill="none" xmlns="http://www.w3.org/2000/svg">
<path d="M125.378 54.1606L89.0075 48.8725L72.7395 15.9056C72.1679 14.7384 70.9769 14 69.6669 14C68.3569 14 67.166 14.7384 66.5944 15.9056L50.3265 48.8725L13.9558 54.1606C12.6696 54.3512 11.574 55.2563 11.1691 56.4949C10.7642 57.7336 11.0976 59.1152 12.0503 60.0203L38.3696 85.6745L32.153 121.905C31.9387 123.191 32.4627 124.501 33.5107 125.263C34.1062 125.692 34.8207 125.93 35.5352 125.93C36.0831 125.93 36.6309 125.811 37.1311 125.525L69.6669 108.423L102.203 125.525C103.37 126.145 104.775 126.026 105.823 125.263C106.871 124.501 107.419 123.191 107.181 121.905L100.964 85.6745L127.284 60.0203C128.212 59.1152 128.57 57.7336 128.165 56.4949C127.76 55.2563 126.688 54.3512 125.402 54.1606H125.378Z" fill="black"/>
</svg>
