<svg width="140" height="140" viewBox="0 0 140 140" fill="none" xmlns="http://www.w3.org/2000/svg">
<path d="M121.819 28H17.1813C11.5629 28 7 32.5633 7 38.182V59.1047C7 61.8365 9.20391 64.0405 11.9355 64.0405C14.9774 64.0405 17.4607 66.5239 17.4607 69.5661C17.4607 72.6083 14.9774 75.0917 11.9355 75.0917C9.20391 75.0917 7 77.2957 7 80.0275V100.95C7 106.569 11.5629 111.132 17.1813 111.132H121.819C127.437 111.132 132 106.569 132 100.95V80.0275C132 77.2957 129.796 75.0917 127.065 75.0917C124.023 75.0917 121.539 72.6083 121.539 69.5661C121.539 66.5239 124.023 64.0405 127.065 64.0405C129.796 64.0405 132 61.8365 132 59.1047V38.182C132 32.5633 127.437 28 121.819 28ZM122.098 38.182V54.976C115.921 57.0559 111.637 62.923 111.637 69.5661C111.637 76.2092 115.952 82.0763 122.098 84.1562V100.95C122.098 101.106 121.974 101.23 121.819 101.23H17.1813C17.0261 101.23 16.9019 101.106 16.9019 100.95V84.1562C23.079 82.0763 27.3626 76.2092 27.3626 69.5661C27.3626 62.923 23.0479 57.0559 16.9019 54.976V38.182C16.9019 38.0268 17.0261 37.9025 17.1813 37.9025H121.819C121.974 37.9025 122.098 38.0268 122.098 38.182Z" fill="black"/>
<path d="M79.945 64.6304H38.1024C35.3709 64.6304 33.167 66.8344 33.167 69.5661C33.167 72.2979 35.3709 74.5019 38.1024 74.5019H79.945C82.6765 74.5019 84.8804 72.2979 84.8804 69.5661C84.8804 66.8344 82.6765 64.6304 79.945 64.6304Z" fill="black"/>
<path d="M79.945 80.3381H38.1024C35.3709 80.3381 33.167 82.5422 33.167 85.2739C33.167 88.0057 35.3709 90.2097 38.1024 90.2097H79.945C82.6765 90.2097 84.8804 88.0057 84.8804 85.2739C84.8804 82.5422 82.6765 80.3381 79.945 80.3381Z" fill="black"/>
<path d="M79.945 48.9541H38.1024C35.3709 48.9541 33.167 51.1581 33.167 53.8899C33.167 56.6216 35.3709 58.8257 38.1024 58.8257H79.945C82.6765 58.8257 84.8804 56.6216 84.8804 53.8899C84.8804 51.1581 82.6765 48.9541 79.945 48.9541Z" fill="black"/>
</svg>
