<svg width="140" height="140" viewBox="0 0 140 140" fill="none" xmlns="http://www.w3.org/2000/svg">
<path d="M69.4238 69.5034C77.8793 69.5034 85.1916 66.4782 91.17 60.4994C97.1484 54.5206 100.173 47.2078 100.173 38.7517C100.173 30.2956 97.1484 22.9828 91.17 17.004C85.1916 11.0251 77.8793 8 69.4238 8C60.9683 8 53.6561 11.0251 47.6776 17.004C41.6992 22.9828 38.6743 30.2956 38.6743 38.7517C38.6743 47.2078 41.6992 54.5206 47.6776 60.4994C53.6561 66.4782 60.9683 69.5034 69.4238 69.5034ZM69.4238 17.9806C75.2117 17.9806 79.9991 19.9577 84.0959 24.0547C88.1927 28.1518 90.1696 32.9396 90.1696 38.7278C90.1696 44.5161 88.1927 49.3039 84.0959 53.401C79.9991 57.498 75.2117 59.4751 69.4238 59.4751C63.636 59.4751 58.8485 57.4742 54.7517 53.401C50.6549 49.3039 48.678 44.5161 48.678 38.7278C48.678 32.9396 50.6788 28.1518 54.7517 24.0547C58.8485 19.9577 63.636 17.9806 69.4238 17.9806Z" fill="black"/>
<path d="M29.5043 73.1239C27.5988 74.958 25.8839 77.1733 24.4548 79.6983C23.0733 82.1041 21.9777 84.629 21.1678 87.1777C20.3818 89.6074 19.7387 92.2752 19.2386 95.086C18.7384 97.8729 18.4049 100.493 18.2382 102.947C18.0715 105.305 18 107.758 18 110.236C18 117 20.1675 122.503 24.4548 126.576C28.6706 130.578 34.1965 132.603 40.9133 132.603H99.5302C106.247 132.603 111.773 130.578 115.989 126.576C120.276 122.503 122.443 117 122.443 110.236C122.443 107.758 122.348 105.305 122.205 102.947C122.039 100.517 121.705 97.8968 121.205 95.1098C120.705 92.2991 120.038 89.6312 119.276 87.2016C118.466 84.6528 117.346 82.1279 115.989 79.722C114.536 77.1733 112.845 74.9581 110.939 73.1477C108.915 71.2183 106.438 69.6462 103.579 68.5267C100.745 67.4071 97.6009 66.8354 94.2664 66.8354C92.5038 66.8354 90.9556 67.6215 88.7167 69.0983C87.2876 70.0273 85.6203 71.0992 83.7625 72.2902C82.2619 73.243 80.2135 74.1481 77.665 74.958C72.7346 76.554 67.7565 76.554 62.8261 74.958C60.2776 74.1243 58.2292 73.243 56.7286 72.2902C54.8946 71.123 53.2273 70.0273 51.7744 69.0983C49.5355 67.6453 47.9873 66.8354 46.2248 66.8354C42.8664 66.8354 39.7462 67.4071 36.9118 68.5267C34.0536 69.6462 31.6003 71.2183 29.5519 73.1477L29.5043 73.1239ZM99.8399 77.7926C101.483 78.4358 102.865 79.2933 103.96 80.3414C105.175 81.4847 106.271 82.9378 107.224 84.629C108.248 86.4393 109.081 88.3211 109.701 90.2267C110.344 92.2514 110.892 94.4667 111.32 96.8725C111.749 99.3021 112.059 101.589 112.202 103.661C112.344 105.781 112.416 107.996 112.416 110.259C112.416 114.237 111.32 117.215 109.081 119.359C106.771 121.574 103.627 122.646 99.5064 122.646H40.8894C36.7689 122.646 33.6487 121.574 31.3145 119.359C29.0755 117.215 27.9799 114.237 27.9799 110.259C27.9799 107.996 28.0513 105.781 28.1943 103.661C28.3372 101.589 28.623 99.326 29.0755 96.8963C29.5043 94.5143 30.0521 92.2752 30.6952 90.2505C31.2906 88.3449 32.1243 86.4631 33.1723 84.6528C34.125 82.9616 35.2445 81.5086 36.4354 80.3652C37.5311 79.3171 38.9125 78.4596 40.556 77.8165C41.9851 77.2448 43.5571 76.9351 45.2958 76.8398C45.534 76.9827 45.8437 77.1733 46.2724 77.4592C47.7491 78.412 49.4402 79.5077 51.3219 80.6987C53.537 82.104 56.3475 83.3665 59.7059 84.4623C66.6371 86.7013 73.7826 86.7013 80.6899 84.4623C84.0483 83.3665 86.8827 82.104 89.0978 80.6987C91.0033 79.4838 92.6705 78.412 94.1234 77.4592C94.5522 77.1733 94.8618 76.9827 95.1 76.8398C96.8387 76.9351 98.4346 77.2448 99.8399 77.8165V77.7926Z" fill="black"/>
</svg>
