<svg width="140" height="140" viewBox="0 0 140 140" fill="none" xmlns="http://www.w3.org/2000/svg">
<path d="M39.6506 38.3225C39.6506 46.3736 42.5327 53.3529 48.2491 59.0459C53.9416 64.7388 60.9204 67.6449 68.971 67.6449C77.0216 67.6449 84.0004 64.7627 89.693 59.0459C95.3856 53.3529 98.2914 46.3736 98.2914 38.3225C98.2914 30.2713 95.4094 23.292 89.693 17.599C84.0004 11.906 77.0216 9 68.971 9C60.9204 9 53.9416 11.8822 48.2491 17.599C42.5565 23.3158 39.6506 30.2713 39.6506 38.3225Z" fill="black"/>
<path d="M30.0517 73.7193C28.2415 75.4581 26.6219 77.5543 25.2642 79.9601C23.9542 82.2945 22.8824 84.7242 22.0964 87.1776C21.3342 89.5596 20.6911 92.156 20.2147 94.9191C19.7145 97.6585 19.3811 100.231 19.2382 102.613C19.0715 104.947 19 107.353 19 109.807C19 116.167 21.0246 121.312 25.0022 125.099C28.9323 128.839 34.1485 130.744 40.4841 130.744H99.1011C105.437 130.744 110.629 128.839 114.583 125.099C118.561 121.312 120.585 116.167 120.585 109.807C120.585 107.353 120.49 104.924 120.347 102.613C120.18 100.231 119.847 97.6585 119.371 94.9191C118.87 92.156 118.251 89.5596 117.489 87.1776C116.703 84.7242 115.631 82.2945 114.321 79.9601C112.94 77.5543 111.344 75.4343 109.534 73.7193C107.652 71.9089 105.318 70.456 102.65 69.3841C99.9824 68.336 97.0289 67.7881 93.8611 67.7881C92.6225 67.7881 91.4078 68.2883 89.0974 69.8128C87.6683 70.7418 86.001 71.8137 84.1432 73.0047C82.5473 74.0289 80.3799 74.9818 77.7122 75.8393C75.116 76.673 72.4722 77.1017 69.8522 77.1017C67.2322 77.1017 64.6121 76.673 61.9921 75.8393C59.3245 74.9818 57.157 74.0289 55.5612 73.0047C53.7033 71.8137 52.036 70.7418 50.5831 69.8128C48.2727 68.3121 47.058 67.7881 45.8195 67.7881C42.6516 67.7881 39.6981 68.336 37.0305 69.3841C34.3628 70.4321 32.0286 71.9089 30.147 73.7193H30.0517Z" fill="black"/>
</svg>
