<svg width="194" height="194" viewBox="0 0 194 194" fill="none" xmlns="http://www.w3.org/2000/svg">
    <g clip-path="url(#clip0_314_6)">
        <path d="M150.54 0H42.65C19.0951 0 0 19.0951 0 42.65V150.54C0 174.095 19.0951 193.19 42.65 193.19H150.54C174.095 193.19 193.19 174.095 193.19 150.54V42.65C193.19 19.0951 174.095 0 150.54 0Z"
              fill="#E51F3B"/>
        <path d="M71.67 34.35V50.06C71.67 51.14 72.55 52.02 73.63 52.02H139.19C140.27 52.02 141.15 52.9 141.15 53.98V119.54C141.15 120.62 142.03 121.5 143.11 121.5H158.82C159.9 121.5 160.78 120.62 160.78 119.54V52.05C160.78 41.19 151.98 32.39 141.12 32.39H73.61C72.53 32.39 71.65 33.27 71.65 34.35H71.67Z"
              fill="white"/>
        <path d="M121.65 139.2L121.7 73.49C121.7 72.41 120.82 71.53 119.74 71.52L52.04 71.47V34.35C52.04 33.27 51.16 32.39 50.08 32.39C40.32 32.39 32.4 40.3 32.4 50.07V89.14C32.4 90.22 33.28 91.1 34.36 91.1L88.17 91.14L33.88 145.43C33.11 146.2 33.11 147.44 33.88 148.21L44.99 159.32C45.76 160.09 47 160.09 47.77 159.32L102.04 105.05L102 158.84C102 159.93 102.88 160.81 103.96 160.81H143.13C152.89 160.81 160.81 152.9 160.81 143.13C160.81 142.05 159.93 141.17 158.85 141.17H123.62C122.53 141.17 121.66 140.29 121.66 139.2H121.65Z"
              fill="white"/>
    </g>
    <defs>
        <clipPath id="clip0_314_6">
            <rect width="193.19" height="193.19" fill="white"/>
        </clipPath>
    </defs>
</svg>